<?xml version="1.0" standalone="no"?>
<!DOCTYPE svg PUBLIC "-//W3C//DTD SVG 20010904//EN"
 "http://www.w3.org/TR/2001/REC-SVG-20010904/DTD/svg10.dtd">
<svg version="1.0" xmlns="http://www.w3.org/2000/svg"
 width="1024.000000pt" height="1024.000000pt" viewBox="0 0 1024.000000 1024.000000"
 preserveAspectRatio="xMidYMid meet">
<metadata>
Created by potrace 1.14, written by Peter Selinger 2001-2017
</metadata>
<g transform="translate(0.000000,1024.000000) scale(0.100000,-0.100000)"
fill="#000000" stroke="none">
<path d="M0 5120 l0 -5120 5120 0 5120 0 0 5120 0 5120 -5120 0 -5120 0 0
-5120z m4403 3216 c26 -8 82 -36 124 -63 43 -27 164 -96 270 -153 184 -100
198 -110 335 -234 79 -71 214 -198 301 -283 l159 -154 38 -107 38 -108 -101
-161 c-86 -136 -112 -169 -162 -208 -33 -26 -62 -49 -64 -51 -2 -2 28 -39 67
-83 143 -162 148 -275 23 -459 -38 -56 -44 -61 -104 -77 -61 -16 -68 -16 -188
4 -68 11 -200 41 -294 65 -163 44 -176 45 -314 46 -222 0 -307 -32 -403 -154
-105 -133 -142 -294 -168 -736 -18 -304 -13 -433 27 -722 l17 -127 26 48 c58
105 197 272 280 336 180 138 427 271 620 333 182 59 509 140 635 157 61 9 214
18 342 22 l232 6 6 46 c56 439 160 654 361 747 264 123 671 -134 1086 -688
257 -342 519 -801 687 -1203 35 -82 98 -233 142 -335 102 -240 150 -370 194
-520 122 -422 124 -725 4 -970 -101 -204 -331 -353 -569 -367 -158 -10 -329
52 -504 184 -89 67 -244 213 -327 309 l-45 52 -65 -40 c-88 -55 -335 -173
-444 -213 -113 -41 -524 -139 -670 -160 -281 -39 -370 -45 -715 -45 -681 0
-1016 24 -1380 100 -447 93 -583 136 -740 235 -61 38 -123 46 -241 29 -92 -13
-120 -13 -249 1 -345 37 -483 80 -582 182 -43 44 -49 55 -68 140 -25 115 -28
379 -5 483 8 36 14 91 15 123 0 31 11 105 25 163 14 58 25 131 25 162 0 32 9
111 20 177 11 66 25 190 31 275 11 159 54 446 90 599 11 47 31 139 44 204 14
65 36 155 49 200 14 45 37 136 50 201 14 65 40 153 57 195 17 42 47 128 65
191 19 63 48 151 66 195 44 112 142 318 169 356 12 18 70 127 129 243 66 133
142 265 201 352 52 76 113 166 136 199 22 33 76 120 119 194 57 97 103 160
164 226 47 50 141 154 210 230 205 227 426 408 510 418 79 9 170 6 213 -7z"/>
<path d="M4231 8183 c-72 -15 -247 -165 -431 -369 -69 -76 -159 -175 -201
-219 -55 -57 -100 -120 -159 -220 -45 -77 -100 -165 -121 -195 -146 -209 -239
-360 -320 -520 -50 -101 -110 -213 -132 -249 -80 -132 -172 -345 -223 -521
-18 -63 -47 -149 -64 -190 -17 -41 -45 -136 -61 -210 -16 -74 -38 -162 -49
-195 -27 -84 -116 -501 -145 -680 -13 -82 -26 -204 -30 -270 -4 -66 -17 -190
-31 -276 -13 -86 -24 -181 -24 -210 0 -30 -11 -101 -25 -159 -14 -58 -25 -128
-25 -157 0 -28 -7 -87 -15 -130 -19 -100 -19 -327 0 -407 17 -73 50 -109 124
-137 86 -32 169 -48 345 -67 149 -17 174 -17 272 -4 146 20 228 4 353 -68 149
-86 256 -118 682 -205 249 -51 427 -70 803 -85 747 -29 1091 -6 1556 105 102
25 228 59 280 76 86 29 330 144 437 206 l43 25 -43 56 c-24 32 -47 62 -50 69
-7 11 101 104 120 102 4 0 45 -48 90 -107 330 -432 635 -651 871 -628 124 13
261 82 344 175 99 110 140 236 140 436 1 256 -73 553 -224 910 -33 77 -90 214
-127 305 -399 966 -978 1759 -1414 1937 -74 30 -166 35 -212 11 -79 -42 -146
-140 -194 -283 -46 -140 -62 -257 -68 -492 l-6 -213 -78 0 -79 0 0 85 c0 83 0
85 -27 91 -41 11 -374 -3 -513 -22 -133 -17 -513 -111 -665 -164 -93 -33 -305
-139 -385 -193 -127 -85 -187 -137 -262 -227 -74 -88 -97 -125 -212 -354 -71
-141 -132 -253 -136 -249 -18 20 -82 314 -101 463 -11 91 -26 199 -32 240 -14
100 -15 563 0 775 23 330 64 491 165 641 88 131 182 199 331 239 97 25 114 27
248 22 132 -4 159 -9 324 -52 188 -50 367 -85 398 -77 23 6 74 86 82 127 9 45
-15 90 -99 185 -72 81 -76 87 -76 135 0 93 35 174 76 175 39 0 89 53 160 168
l72 115 -18 52 c-15 44 -38 72 -161 192 -79 77 -206 196 -281 264 -130 117
-148 130 -330 228 -106 57 -223 124 -260 149 -56 37 -75 44 -125 47 -32 2 -69
1 -82 -2z"/>
</g>
</svg>
